<svg version="1.1" id="Livello_1" xmlns="http://www.w3.org/2000/svg" xmlns:xlink="http://www.w3.org/1999/xlink" x="0px" y="0px"
	 viewBox="0 0 16 16" style="enable-background:new 0 0 16 16;" xml:space="preserve">
<style type="text/css">
	.st0{fill:#828282;}
</style>
<path class="st0" d="M15.8,8.2c0,4.3-3.5,7.8-7.8,7.8s-7.8-3.5-7.8-7.8S3.7,0.4,8,0.4S15.8,3.9,15.8,8.2z M13.9,5
	c-0.4,0.2-0.9,0.3-1.3,0.4c0.5-0.3,0.8-0.7,1-1.3c-0.4,0.3-0.9,0.5-1.5,0.6c-0.4-0.5-1-0.7-1.7-0.7c-1.3,0-2.3,1-2.3,2.3
	c0,0.2,0,0.4,0.1,0.5c-1.9-0.1-3.6-1-4.8-2.4C3.1,4.7,3,5.1,3,5.5c0,0.8,0.4,1.5,1,1.9C3.7,7.4,3.3,7.3,3,7.2c0,0,0,0,0,0
	c0,1.1,0.8,2.1,1.9,2.3C4.7,9.5,4.5,9.5,4.3,9.5c-0.1,0-0.3,0-0.4,0C4.1,10.4,5,11.1,6,11.1c-0.8,0.6-1.8,1-2.9,1
	c-0.2,0-0.4,0-0.6,0c1,0.7,2.2,1,3.6,1c4.3,0,6.6-3.5,6.6-6.6c0-0.1,0-0.2,0-0.3C13.2,5.9,13.5,5.5,13.9,5z"/>
</svg>
