<svg version="1.1" id="Livello_1" xmlns="http://www.w3.org/2000/svg" xmlns:xlink="http://www.w3.org/1999/xlink" x="0px" y="0px"
	 viewBox="0 0 16 16" style="enable-background:new 0 0 16 16;" xml:space="preserve">
<style type="text/css">
	.st0{fill:#828282;}
</style>
<path class="st0" d="M15.8,8.2c0,4.3-3.5,7.8-7.8,7.8s-7.8-3.5-7.8-7.8S3.7,0.4,8,0.4S15.8,3.9,15.8,8.2z M12.8,12.8V9.3
	c0-1.7-0.4-3.1-2.4-3.1c-1,0-1.6,0.5-1.9,1h0V6.4H6.6v6.4h2V9.6C8.6,8.8,8.7,8,9.8,8c1,0,1,1,1,1.7v3.1L12.8,12.8L12.8,12.8z
	 M5.5,4.3c0-0.6-0.5-1.2-1.2-1.2c-0.6,0-1.2,0.5-1.2,1.2c0,0.6,0.5,1.2,1.2,1.2C5,5.5,5.5,5,5.5,4.3z M5.3,6.4h-2v6.4h2L5.3,6.4z"/>
</svg>
